<svg width="20" height="25" viewBox="0 0 20 25" fill="none" xmlns="http://www.w3.org/2000/svg">
<path d="M6.36793 24.9672C5.58196 24.9233 4.84236 24.5713 4.30168 23.9838C3.65493 23.3447 3.07779 22.6353 2.58043 21.8681C1.80355 20.7255 1.18944 19.4749 0.756684 18.1541C0.266513 16.7332 0.00845012 15.2389 -0.00706559 13.7315C-0.0447326 12.2524 0.312323 10.7909 1.02543 9.50527C1.5474 8.5785 2.29192 7.80458 3.18793 7.25736C4.07404 6.71248 5.0852 6.41919 6.11793 6.4075C6.89646 6.4548 7.6615 6.63756 8.38043 6.94797C8.95363 7.20699 9.55693 7.38907 10.1754 7.48973C10.858 7.34288 11.5249 7.12789 12.1667 6.84784C12.9263 6.54321 13.7305 6.37264 14.5454 6.34331C14.6542 6.34331 14.7617 6.34331 14.8654 6.35615C16.6524 6.40937 18.3143 7.31023 19.3654 8.79534C17.6941 9.71304 16.6679 11.5186 16.7117 13.4645C16.6952 14.9403 17.2943 16.3528 18.3579 17.3453C18.8366 17.8137 19.3939 18.1891 20.0029 18.4532C19.8779 18.8384 19.7342 19.2107 19.5817 19.5855C19.235 20.414 18.8074 21.2041 18.3054 21.9438C17.8315 22.6848 17.2799 23.3702 16.6604 23.9876C16.095 24.5639 15.3412 24.9038 14.5454 24.9415C13.8709 24.9108 13.2082 24.7482 12.5929 24.4626C11.9294 24.1658 11.2164 24.0032 10.4929 23.9838C9.74905 23.9988 9.0149 24.1605 8.33043 24.4601C7.73924 24.734 7.10762 24.9045 6.46168 24.9646L6.36793 24.9672ZM10.3054 6.34331C10.2117 6.34331 10.1179 6.34331 10.0242 6.33176C10.0045 6.17895 9.99402 6.02502 9.99293 5.87088C10.0338 4.58855 10.5218 3.36395 11.3679 2.42007C11.8409 1.87777 12.4141 1.43746 13.0542 1.12473C13.6515 0.808921 14.3043 0.619046 14.9742 0.566284C14.9929 0.73446 14.9929 0.898784 14.9929 1.05541C14.9753 2.31756 14.5135 3.53051 13.6929 4.47027C12.8886 5.57789 11.6486 6.26355 10.3054 6.34331Z" fill="white"/>
</svg>
