<svg width="20" height="20" viewBox="0 0 20 20" fill="none" xmlns="http://www.w3.org/2000/svg">
<path fill-rule="evenodd" clip-rule="evenodd" d="M19.7875 10.2273C19.7875 9.51825 19.7239 8.83643 19.6057 8.18188H10.1875V12.0501H15.5693C15.3375 13.3001 14.633 14.3592 13.5739 15.0683V17.5774H16.8057C18.6966 15.8364 19.7875 13.2728 19.7875 10.2273Z" fill="white"/>
<path fill-rule="evenodd" clip-rule="evenodd" d="M10.1864 19.9999C12.8864 19.9999 15.15 19.1045 16.8046 17.5772L13.5728 15.0681C12.6773 15.6681 11.5318 16.0226 10.1864 16.0226C7.58183 16.0226 5.37728 14.2635 4.59092 11.8999H1.25V14.4908C2.89546 17.759 6.27728 19.9999 10.1864 19.9999Z" fill="white"/>
<path fill-rule="evenodd" clip-rule="evenodd" d="M4.59205 11.9C4.39205 11.3 4.27842 10.659 4.27842 9.99995C4.27842 9.34086 4.39205 8.69995 4.59205 8.09995V5.50903H1.25114C0.573864 6.85904 0.1875 8.38631 0.1875 9.99995C0.1875 11.6136 0.573864 13.1409 1.25114 14.4909L4.59205 11.9Z" fill="white"/>
<path fill-rule="evenodd" clip-rule="evenodd" d="M10.1864 3.97728C11.6546 3.97728 12.9728 4.48183 14.0091 5.47274L16.8773 2.60455C15.1455 0.990911 12.8818 0 10.1864 0C6.27728 0 2.89546 2.24091 1.25 5.5091L4.59092 8.10002C5.37728 5.73638 7.58183 3.97728 10.1864 3.97728Z" fill="white"/>
</svg>
