<svg width="1573" height="282" viewBox="0 0 1573 282" fill="none" xmlns="http://www.w3.org/2000/svg">
<g clip-path="url(#clip0_1178_769)">
<path d="M264.66 278.24V66.79H309.36V160H312.15L388.24 66.76H441.83L363.36 161.44L442.76 278.21H389.28L331.35 191.28L309.35 218.12V278.21L264.66 278.24Z" fill="#FFC700"/>
<path d="M464.33 278.24V119.66H507V147.33H508.65C511.55 137.477 516.397 130.033 523.19 125C529.987 119.948 538.262 117.283 546.73 117.42C549.109 117.427 551.486 117.564 553.85 117.83C556.11 118.053 558.352 118.43 560.56 118.96V157.96C557.75 157.192 554.885 156.64 551.99 156.31C548.676 155.854 545.335 155.613 541.99 155.59C535.961 155.48 530.004 156.919 524.69 159.77C519.705 162.472 515.555 166.487 512.69 171.38C509.694 176.587 508.176 182.514 508.3 188.52V278.24H464.33Z" fill="#FFC700"/>
<path d="M624 281.24C614.708 281.406 605.487 279.593 596.95 275.92C589.295 272.595 582.781 267.103 578.21 260.12C573.643 253.14 571.356 244.417 571.35 233.95C571.35 225.137 572.966 217.737 576.2 211.75C579.316 205.895 583.864 200.924 589.42 197.3C595.262 193.532 601.679 190.742 608.42 189.04C615.79 187.136 623.3 185.825 630.88 185.12C640.1 184.153 647.533 183.24 653.18 182.38C658.826 181.52 662.923 180.23 665.47 178.51C666.714 177.677 667.72 176.534 668.39 175.195C669.059 173.856 669.37 172.365 669.29 170.87V170.25C669.29 163.71 667.243 158.65 663.15 155.07C659.056 151.49 653.256 149.7 645.75 149.7C637.83 149.7 631.53 151.44 626.85 154.92C622.365 158.108 619.088 162.717 617.55 168L576.87 164.69C578.751 155.459 582.946 146.857 589.06 139.69C595.43 132.407 603.493 126.802 612.54 123.37C622.146 119.55 633.28 117.64 645.94 117.64C654.486 117.605 663.003 118.647 671.29 120.74C678.997 122.63 686.305 125.881 692.87 130.34C699.111 134.612 704.229 140.327 707.79 147C711.443 153.78 713.266 161.883 713.26 171.31V278.31H671.55V256.31H670.31C667.762 261.272 664.293 265.704 660.09 269.37C655.579 273.264 650.356 276.246 644.71 278.15C638.029 280.334 631.027 281.379 624 281.24ZM636.6 250.88C642.526 250.99 648.391 249.658 653.69 247C658.44 244.603 662.468 240.986 665.36 236.52C668.206 232.041 669.676 226.826 669.59 221.52V204.73C667.834 205.797 665.94 206.614 663.96 207.16C661.328 207.961 658.658 208.628 655.96 209.16C652.96 209.75 650.04 210.26 647.08 210.71C644.12 211.16 641.44 211.55 639.03 211.9C634.383 212.515 629.835 213.728 625.5 215.51C621.971 216.908 618.868 219.204 616.5 222.17C614.3 225.174 613.173 228.829 613.3 232.55C613.3 238.55 615.486 243.11 619.86 246.23C624.233 249.35 629.796 250.9 636.55 250.88H636.6Z" fill="#FFC700"/>
<path d="M769.53 99.2099C763.299 99.3325 757.271 96.9975 752.75 92.7099C750.548 90.7258 748.787 88.3012 747.582 85.5931C746.377 82.8851 745.754 79.954 745.754 76.9899C745.754 74.0259 746.377 71.0948 747.582 68.3868C748.787 65.6787 750.548 63.2541 752.75 61.27C757.312 57.0614 763.288 54.7205 769.495 54.7112C775.702 54.7019 781.685 57.025 786.26 61.22C788.455 63.2083 790.209 65.6343 791.41 68.3418C792.61 71.0493 793.231 73.9782 793.231 76.94C793.231 79.9017 792.61 82.8307 791.41 85.5381C790.209 88.2456 788.455 90.6716 786.26 92.66C781.763 96.9618 775.751 99.3156 769.53 99.2099ZM747.43 278.21V119.66H791.43V278.24L747.43 278.21Z" fill="#FFC700"/>
<path d="M870.5 186.56V278.24H826.5V119.66H868.42V147.66H870.27C873.639 138.609 879.863 130.901 888 125.7C896.26 120.293 906.26 117.59 918 117.59C929.02 117.59 938.623 120 946.81 124.82C955.045 129.683 961.683 136.842 965.91 145.42C970.45 154.333 972.72 164.95 972.72 177.27V278.27H928.72V185.12C928.787 175.413 926.31 167.823 921.29 162.35C916.27 156.877 909.35 154.14 900.53 154.14C895.073 154.043 889.685 155.373 884.9 158C880.367 160.574 876.701 164.438 874.37 169.1C871.863 173.92 870.573 179.74 870.5 186.56Z" fill="#FFC700"/>
<path d="M1052.52 281.24C1043.24 281.4 1034.04 279.586 1025.52 275.92C1017.87 272.595 1011.35 267.103 1006.78 260.12C1002.2 253.14 999.913 244.417 999.92 233.95C999.92 225.137 1001.54 217.737 1004.77 211.75C1007.89 205.897 1012.43 200.926 1017.98 197.3C1023.83 193.519 1030.25 190.715 1037 189C1044.37 187.096 1051.88 185.785 1059.46 185.08C1068.68 184.113 1076.11 183.2 1081.76 182.34C1087.41 181.48 1091.5 180.19 1094.05 178.47C1095.29 177.637 1096.3 176.494 1096.97 175.155C1097.64 173.816 1097.95 172.325 1097.87 170.83V170.21C1097.87 163.67 1095.82 158.61 1091.73 155.03C1087.64 151.45 1081.84 149.66 1074.33 149.66C1066.41 149.66 1060.11 151.4 1055.43 154.88C1050.95 158.065 1047.68 162.666 1046.14 167.94L1005.46 164.63C1007.34 155.401 1011.53 146.8 1017.64 139.63C1024.02 132.349 1032.08 126.745 1041.13 123.31C1050.74 119.49 1061.88 117.58 1074.53 117.58C1083.08 117.546 1091.59 118.587 1099.88 120.68C1107.59 122.57 1114.9 125.821 1121.46 130.28C1127.7 134.571 1132.81 140.307 1136.36 147C1140.01 153.78 1141.84 161.883 1141.83 171.31V278.31H1100.12V256.31H1098.88C1096.33 261.272 1092.86 265.704 1088.66 269.37C1084.15 273.264 1078.93 276.246 1073.28 278.15C1066.58 280.34 1059.56 281.384 1052.52 281.24ZM1065.12 250.88C1071.06 251.001 1076.95 249.673 1082.26 247.01C1087.01 244.615 1091.03 240.997 1093.92 236.53C1096.77 232.054 1098.25 226.837 1098.16 221.53V204.73C1096.4 205.797 1094.51 206.614 1092.53 207.16C1089.9 207.961 1087.23 208.628 1084.53 209.16C1081.53 209.75 1078.61 210.26 1075.65 210.71C1072.69 211.16 1070 211.55 1067.6 211.9C1062.95 212.512 1058.4 213.725 1054.07 215.51C1050.54 216.908 1047.44 219.204 1045.07 222.17C1042.87 225.171 1041.74 228.828 1041.87 232.55C1041.87 238.55 1044.05 243.11 1048.42 246.23C1052.79 249.35 1058.35 250.9 1065.12 250.88Z" fill="#FFC700"/>
<path d="M1176.83 278.24V66.79H1221.54V154H1312.29V66.79H1356.89V278.24H1312.29V190.9H1221.54V278.24H1176.83Z" fill="#FFC700"/>
<path d="M1468.71 278.24H1393.71V66.79H1469.29C1490.56 66.79 1508.87 71.0067 1524.22 79.44C1539.41 87.7113 1551.76 100.354 1559.68 115.73C1567.98 131.497 1572.13 150.357 1572.12 172.31C1572.11 194.263 1567.97 213.193 1559.68 229.1C1551.75 244.56 1539.33 257.264 1524.06 265.55C1508.64 274.01 1490.19 278.24 1468.71 278.24ZM1438.46 239.94H1466.85C1480.07 239.94 1491.2 237.583 1500.25 232.87C1509.3 228.157 1516.11 220.823 1520.69 210.87C1525.27 200.923 1527.56 188.067 1527.56 172.3C1527.56 156.68 1525.27 143.913 1520.69 134C1516.11 124.087 1509.31 116.79 1500.3 112.11C1491.29 107.443 1480.17 105.11 1466.95 105.11H1438.46V239.94Z" fill="#FFC700"/>
<path d="M173.75 131.5H155.75L138.08 278.25H150.75L173.75 131.5Z" fill="#6FEDFF"/>
<path d="M26.5801 131.5H44.5801L62.2501 278.25H49.5801L26.5801 131.5Z" fill="#6FEDFF"/>
<path d="M88.8301 131.5H106.17L104.83 278.25H91.8301L88.8301 131.5Z" fill="#6FEDFF"/>
<path d="M57.1699 131.5H74.4999L81.8299 278.25H69.4999L57.1699 131.5Z" fill="#6FEDFF"/>
<path d="M121.83 131.5H138.08L128.17 278.25H115.83L121.83 131.5Z" fill="#6FEDFF"/>
<path d="M1.5 47.84H7.83C7.83 47.84 2.83 39.14 3.5 35.17C4.5 27.73 10.41 19.17 15.38 17.67C20.35 16.17 23 16.17 24 17C25 17.83 28.25 20.88 28.25 20.88H30.62C30.62 20.88 36.25 16.11 38.38 16.37C40.51 16.63 45.25 15.37 48.38 17.63C51.51 19.89 56.25 24.38 57.62 29.5C58.99 34.62 60.62 34.5 60.62 34.5C60.62 34.5 61.38 43.09 57.62 47.8C53.86 52.51 48.75 59.29 44.25 59.29C39.75 59.29 37.5 59.54 36.75 57.54C36 55.54 31.09 57.42 31.09 57.42C31.09 57.42 26.38 60.92 23.88 61.04C21.38 61.16 14.12 61.54 11.5 60.29C8.88 59.04 3 53.88 1.5 47.84Z" fill="#FDFDFD"/>
<path d="M25.9995 27.4199C25.9995 27.4199 21.9995 43.5399 23.2495 45.6699C24.4995 47.7999 13.3795 42.6699 14.9995 37.5399C16.6195 32.4099 17.5895 30.4199 20.4195 29.2899C23.2495 28.1599 25.9995 27.4199 25.9995 27.4199Z" fill="#6D6D6D"/>
<path d="M81.8295 71.9999C81.8295 71.9999 76.9995 74.4999 73.9995 74.1699C70.9995 73.8399 67.1695 71.3399 66.8295 68.9199C66.4895 66.4999 69.4995 63.6699 69.4995 63.6699L81.8295 71.9999Z" fill="#8E8E8E"/>
<path d="M32.6201 65.5399L41.3801 74.1699H44.3801C44.3801 74.1699 46.4601 69.5399 48.2101 69.1699C49.9601 68.7999 48.2101 63.6699 48.2101 63.6699L32.6201 65.5399Z" fill="#FDFDFD"/>
<path d="M68.3299 82.6701L63.9999 89.0001L52.6699 75.3301L60.6899 76.4801L68.3299 82.6701Z" fill="#8E8E8E"/>
<path d="M46.4996 82.8401C46.4996 82.8401 44.8896 79.3401 49.0296 77.6701C53.1696 76.0001 56.1696 75.8001 59.3296 76.4801C62.4896 77.1601 64.1696 79.6201 64.4996 79.4801C64.8296 79.3401 61.1696 85.1701 61.4996 86.0001C61.8296 86.8301 63.0396 87.3401 64.4996 85.3401C65.9596 83.3401 67.3096 80.8401 69.4996 80.0001C71.6896 79.1601 75.9996 78.6701 77.1696 79.0001C78.3396 79.3301 83.4996 82.6701 81.8296 85.8401C80.1596 89.0101 77.8296 94.8401 78.3296 99.6701C78.8296 104.5 80.8296 111.34 82.8296 114C84.8296 116.66 90.3296 122.17 90.3296 122.17C90.3296 122.17 80.3296 123.84 77.8296 122.17C75.3296 120.5 69.4996 110.34 69.4996 110.34C69.4996 110.34 70.6696 118.84 65.6696 119.5C60.6696 120.16 47.4996 117.17 47.4996 117.17C47.4996 117.17 46.1696 114 47.3296 111.67C48.4896 109.34 49.9996 103.84 51.3296 100.84C52.6596 97.8401 52.9996 92.8401 51.6696 90.8401C50.3396 88.8401 46.4996 82.8401 46.4996 82.8401Z" fill="#F1F1F1"/>
<path d="M68.5001 66.6699V70.1699L58.8301 68.9199C58.8301 68.9199 52.5001 62.3399 54.3301 59.6699C56.1601 56.9999 60.1701 53.6699 61.2501 52.1699C62.3301 50.6699 63.3301 44.8399 63.5001 43.1699C63.6701 41.4999 68.0001 38.1699 68.5001 38.1699C69.0001 38.1699 73.0001 37.9999 73.0001 40.6699C73.0001 43.3399 73.1701 46.1699 74.6701 48.3399C76.1701 50.5099 80.6701 55.8399 84.0001 57.6699C87.3301 59.4999 91.3301 60.8399 91.0001 64.4999C90.5323 67.7753 89.8067 71.0087 88.8301 74.1699C88.8301 74.1699 86.6701 77.4999 84.6701 76.1699C82.6701 74.8399 77.5001 70.8399 77.5001 70.8399C77.5001 70.8399 72.3301 71.4999 71.8301 71.1699C70.6379 69.7326 69.5262 68.2303 68.5001 66.6699Z" fill="#FDFDFD"/>
<path d="M12.6704 96.7601C12.6704 96.7601 12.0004 88.9401 14.8404 86.6201C16.1521 85.5403 17.7574 84.8784 19.4489 84.7198C21.1405 84.5611 22.8408 84.913 24.3304 85.7301C27.1704 87.3401 29.5004 89.1101 27.8304 91.6101C27.0177 92.9335 25.9397 94.0743 24.6644 94.9606C23.3891 95.847 21.9441 96.4597 20.4204 96.7601C17.8458 97.0597 15.2451 97.0597 12.6704 96.7601Z" fill="#6D6D6D"/>
<path d="M18.3304 109.67L19.0004 120C19.0004 120 30.5004 120.84 33.5004 117.34C36.5004 113.84 36.8304 110.67 36.5004 108.67C36.1704 106.67 38.3304 111.84 38.3304 111.84C39.8137 112.133 41.319 112.3 42.8304 112.34C43.6704 112.17 48.2204 108.34 49.0304 105.67C49.8404 103 50.3904 95.84 49.0304 92.84C47.6704 89.84 43.6504 85.17 40.8304 84.5C38.0104 83.83 37.3304 83.17 37.3304 83.17C37.3304 83.17 34.0004 74.84 29.0004 72.34C24.0004 69.84 17.3404 68.67 14.8404 69.84C12.3404 71.01 6.84043 74.46 5.33043 76.48C3.82043 78.5 1.83043 83.34 2.17043 86.84C2.46423 89.5891 3.25364 92.2623 4.50043 94.73C5.00043 95.5 5.33043 97.5 4.00043 97.84C2.8141 98.0541 1.74902 98.6998 1.01045 99.6526C0.271877 100.605 -0.0879077 101.798 0.000433098 103C0.000433098 106.84 0.170433 111.5 2.17043 113.34C4.17043 115.18 9.67043 117.84 12.5004 116.84C15.3304 115.84 18.3304 109.67 18.3304 109.67Z" fill="#FDFDFD"/>
<path d="M88.6699 11.8401V1.67009C88.6699 1.67009 75.9999 10.3401 75.4999 13.8401C74.9999 17.3401 70.1699 19.1701 70.1699 19.1701C70.1699 19.1701 68.6699 25.6701 71.1699 27.4201C73.6699 29.1701 77.0499 30.3401 79.1699 28.5001C80.4183 27.4168 81.8898 26.6213 83.4799 26.1701C83.4799 26.1701 78.1499 29.6701 77.8099 31.5001C77.4699 33.3301 75.4799 38.0001 77.3099 42.1701C79.1399 46.3401 84.4999 54.3401 87.9999 55.3401C91.4999 56.3401 95.8299 57.5001 98.4999 55.3401C101.17 53.1801 101.17 51.0001 100.67 49.3401C100.385 48.2829 100.473 47.1598 100.92 46.1601C100.92 46.1601 102.17 46.0001 102.5 48.8401C102.83 51.6801 102 53.6701 103.67 54.8401C105.34 56.0101 111.33 57.6201 115 56.5601C118.67 55.5001 125.33 51.8401 127 49.5001C129.445 45.7237 130.667 41.2858 130.5 36.7901C130.17 31.6701 130.83 29.6701 129.33 27.4201C127.83 25.1701 124.5 23.0001 123.83 20.6701C123.16 18.3401 122.17 8.84009 117.5 5.84009C112.83 2.84009 107.67 -0.999909 102.5 0.240091C97.3299 1.48009 91.5399 4.50009 90.9999 6.17009C90.4599 7.84009 88.6699 11.8401 88.6699 11.8401Z" fill="#F2F2F2"/>
<path d="M101.5 35.9999C101.5 35.9999 98.6698 28.9999 102.5 29.1699C106.33 29.3399 115.17 29.8299 116.83 29.1699C118.49 28.5099 120.5 29.6699 119.5 32.5799C118.5 35.4899 116.83 39.4999 114.5 40.6699C112.17 41.8399 108 40.6699 105.33 39.6699C103.65 38.9524 102.288 37.6479 101.5 35.9999Z" fill="#6D6D6D"/>
<path d="M153 52.34C153 52.34 154.67 58.67 158.67 55C162.67 51.33 163.5 50.65 162.67 46.16C161.84 41.67 162.83 41.31 160 41.16C158.391 41.0609 156.778 41.0609 155.17 41.16C155.17 41.16 155.46 35.34 157.98 32.84C160.5 30.34 164.67 27.3 167.83 28.98C170.99 30.66 172.17 31.25 173.5 32.59C174.83 33.93 176.75 35.67 175.25 37.59C173.75 39.51 172.42 41.17 172.67 41.75C172.92 42.33 176.33 42.39 177.5 42.32C178.67 42.25 183.75 43.25 185.08 46C186.41 48.75 188.67 50.17 187.83 54.09C186.99 58.01 184.17 65.09 181.08 67.67C177.99 70.25 176.17 72.75 172.92 72.75C169.67 72.75 168.33 72 166.92 70.59C165.028 68.8968 162.681 67.7948 160.17 67.42C158.17 67.34 156.42 67.17 154.33 68.09C152.24 69.01 150.17 69.5 148.67 70.84C147.17 72.18 144.58 72.67 143.42 72.09C142.26 71.51 140.33 70.09 140.08 68.17C139.83 66.25 136.67 62.25 133.75 61.17C130.83 60.09 127.58 58.31 127.08 56.9C126.58 55.49 127.67 53.34 129 51.09C130.33 48.84 133.17 43.67 134.17 41.67C135.17 39.67 137.08 36.67 137.42 35.5C137.76 34.33 139.83 32.42 141.17 32.59C142.51 32.76 144.42 32 145.42 33.42C146.508 34.8995 147.828 36.1929 149.33 37.25C150.92 38.42 152.17 38.5 152.5 40.42C152.83 42.34 153 52.34 153 52.34Z" fill="#F2F2F2"/>
<path d="M124.83 74.17C124.83 74.17 126.67 70.67 128.67 70.34C130.67 70.01 131 68.17 129.83 67.5C128.66 66.83 121.7 61.39 119.77 61.19C117.84 60.99 115.67 61.55 113.17 61.19C110.67 60.83 107.5 59.19 104.83 61.19C102.16 63.19 98.6702 66 97.5002 68.19C96.3302 70.38 95.1702 72.42 96.6702 74.19C98.1702 75.96 99.8302 77.49 101.83 77.83C102.508 77.9439 103.126 78.2872 103.581 78.8023C104.036 79.3175 104.301 79.9733 104.33 80.66C104.5 81.49 100.67 81.49 98.5002 81.49C96.3302 81.49 94.3302 82.19 91.8302 84.67C88.7811 87.943 86.6554 91.9666 85.6702 96.33C85.0002 100.33 85.6702 105.49 88.8302 109.16C91.9902 112.83 93.8302 115.83 97.5002 117.16C101.17 118.49 102.83 119.33 105 118.49C107.17 117.65 108.5 116.99 108.83 113.49C109.16 109.99 110.5 107.99 108.67 105.83C107.346 104.357 105.833 103.066 104.17 101.99C104.17 101.99 102.33 101.49 105.17 100.49C108.01 99.49 115 95 115.83 92C116.66 89 117.67 90.67 117.67 92.67C117.67 94.67 119.17 97.17 118.67 100.67C118.213 104.069 117.256 107.381 115.83 110.5C114.33 113.84 110.13 118.84 110.13 118.84C110.13 118.84 119.33 119.34 121.5 118.84C123.67 118.34 129.67 117.67 132 113C134.33 108.33 135.33 106.5 133.17 104.84C131.775 103.701 130.637 102.28 129.83 100.67L138.08 101C138.08 101 142.5 96.5 142.33 92.34C142.16 88.18 141.59 83.98 139.17 80.84C136.53 77.41 135.6 74.84 134.17 74.2C131 72.72 124.83 74.17 124.83 74.17Z" fill="#F2F2F2"/>
<path d="M129.88 121.29C129.88 121.29 135.75 117.42 137.38 112.54C139.01 107.66 140.3 114.79 142.38 116.92C144.46 119.05 148.32 122.7 146.79 122.92C136.5 124.29 129.88 121.29 129.88 121.29Z" fill="#F2F2F2"/>
<path d="M147.1 84.17C147.1 84.17 147.25 77.8 149.62 76.48C151.99 75.16 152.35 74.48 157.49 74.2C162.63 73.92 163.88 74.88 166.88 75.34C170.515 76.0224 174.245 76.0224 177.88 75.34C181.75 74.42 184.88 72.96 188.01 72.75C191.14 72.54 199.01 79.92 199.01 79.92C199.01 79.92 204.63 86.21 204.13 89C203.63 91.79 203.63 92.92 201.13 92.92C198.63 92.92 196.76 92.42 197.51 93.92C198.26 95.42 201.01 97.54 200.51 100.29C200.01 103.04 197.39 107.67 194.26 108.29C191.13 108.91 186.01 107.92 185.26 105.67C184.51 103.42 183.76 105.54 183.76 105.54C183.76 105.54 185.13 112.92 181.89 116.17C178.65 119.42 177.89 121.92 172.51 122.04C167.13 122.16 161.89 122.42 158.13 120.04C154.37 117.66 152.76 116.54 153.39 115.04C154.02 113.54 155.93 109.92 155.93 109.92L149.76 110.29C149.76 110.29 145.63 108.92 145.01 106.42C144.672 105.264 144.587 104.049 144.76 102.856C144.932 101.664 145.358 100.523 146.01 99.51C147.38 97.29 147.1 84.17 147.1 84.17Z" fill="#F2F2F2"/>
<path d="M171 86.5401C171 86.5401 174.5 81.5401 178.5 84.2901C182.5 87.0401 185.12 88.9201 185 92.4201C184.88 95.9201 184.62 98.7901 182.25 100.04C179.88 101.29 178 102.17 176 101.54C174 100.91 171.62 100.42 171 98.5401C170.38 96.6601 171 86.5401 171 86.5401Z" fill="#6D6D6D"/>
</g>
<defs>
<clipPath id="clip0_1178_769">
<rect width="1572.16" height="281.24" fill="white"/>
</clipPath>
</defs>
</svg>
