<svg width="17" height="22" viewBox="0 0 17 22" fill="none" xmlns="http://www.w3.org/2000/svg">
<path d="M5 0.608887H14C14.7956 0.608887 15.5587 0.923745 16.1213 1.4842C16.6839 2.04465 17 2.80479 17 3.59738V16.5475C17 17.3401 16.6839 18.1003 16.1213 18.6607C15.5587 19.2212 14.7956 19.536 14 19.536H5C4.20435 19.536 3.44129 19.2212 2.87868 18.6607C2.31607 18.1003 2 17.3401 2 16.5475V3.59738C2 2.80479 2.31607 2.04465 2.87868 1.4842C3.44129 0.923745 4.20435 0.608887 5 0.608887ZM5 1.60505C4.46957 1.60505 3.96086 1.81496 3.58579 2.18859C3.21071 2.56223 3 3.06898 3 3.59738V16.5475C3 17.0759 3.21071 17.5827 3.58579 17.9563C3.96086 18.33 4.46957 18.5399 5 18.5399H14C14.5304 18.5399 15.0391 18.33 15.4142 17.9563C15.7893 17.5827 16 17.0759 16 16.5475V3.59738C16 3.06898 15.7893 2.56223 15.4142 2.18859C15.0391 1.81496 14.5304 1.60505 14 1.60505H11V8.27936L8 6.18742L5 8.27936V1.60505ZM10 1.60505H6V6.36672L8 4.97209L10 6.36672V1.60505ZM5 21.5284C3.67392 21.5284 2.40215 21.0036 1.46447 20.0695C0.526784 19.1354 0 17.8685 0 16.5475V4.59355H1V16.5475C1 17.6043 1.42143 18.6178 2.17157 19.3651C2.92172 20.1124 3.93913 20.5322 5 20.5322H13V21.5284H5Z" fill="#6FEDFF"/>
</svg>
