<svg width="19" height="20" viewBox="0 0 19 20" fill="none" xmlns="http://www.w3.org/2000/svg">
<path d="M2 10.5668V18.5361H9V10.5668H2ZM10 10.5668V18.5361H17V10.5668H10ZM18 10.5668V19.5322H1V10.5668H0V4.58977H3.04L3 4.09168C3 3.16698 3.36875 2.28016 4.02513 1.6263C4.6815 0.972438 5.57174 0.605103 6.5 0.605103C7.77 0.605103 8.89 1.2825 9.5 2.29858C10.11 1.2825 11.23 0.605103 12.5 0.605103C13.4283 0.605103 14.3185 0.972438 14.9749 1.6263C15.6313 2.28016 16 3.16698 16 4.09168L15.96 4.58977H19V10.5668H18ZM1 5.58593V9.57059H9V5.58593H1ZM18 9.57059V5.58593H10V9.57059H18ZM14.95 4.58977L15 4.09168C15 3.43118 14.7366 2.79774 14.2678 2.33069C13.7989 1.86365 13.163 1.60127 12.5 1.60127C11.837 1.60127 11.2011 1.86365 10.7322 2.33069C10.2634 2.79774 10 3.43118 10 4.09168V4.58977H14.95ZM9 4.58977V4.09168C9 3.43118 8.73661 2.79774 8.26777 2.33069C7.79893 1.86365 7.16304 1.60127 6.5 1.60127C5.83696 1.60127 5.20107 1.86365 4.73223 2.33069C4.26339 2.79774 4 3.43118 4 4.09168L4.05 4.58977H9Z" fill="#6FEDFF"/>
</svg>
