<svg width="21" height="19" viewBox="0 0 21 19" fill="none" xmlns="http://www.w3.org/2000/svg">
<path d="M5 2H18C18.7956 2 19.5587 2.31607 20.1213 2.87868C20.6839 3.44129 21 4.20435 21 5V12C21 12.7956 20.6839 13.5587 20.1213 14.1213C19.5587 14.6839 18.7956 15 18 15H13.5L14 18H15V19H8V18H9L9.5 15H5C4.20435 15 3.44129 14.6839 2.87868 14.1213C2.31607 13.5587 2 12.7956 2 12V5C2 4.20435 2.31607 3.44129 2.87868 2.87868C3.44129 2.31607 4.20435 2 5 2ZM10.5 15L10 18H13L12.5 15H10.5ZM5 3C4.46957 3 3.96086 3.21071 3.58579 3.58579C3.21071 3.96086 3 4.46957 3 5V12C3 12.5304 3.21071 13.0391 3.58579 13.4142C3.96086 13.7893 4.46957 14 5 14H18C18.5304 14 19.0391 13.7893 19.4142 13.4142C19.7893 13.0391 20 12.5304 20 12V5C20 4.46957 19.7893 3.96086 19.4142 3.58579C19.0391 3.21071 18.5304 3 18 3H5ZM0 5C0 3.67392 0.526784 2.40215 1.46447 1.46447C2.40215 0.526784 3.67392 0 5 0H17V1H5C3.93913 1 2.92172 1.42143 2.17157 2.17157C1.42143 2.92172 1 3.93913 1 5V11H0V5Z" fill="#6FEDFF"/>
</svg>
